<svg id="Icon_-_Responsive" data-name="Icon - Responsive" xmlns="http://www.w3.org/2000/svg" width="24" height="24" viewBox="0 0 24 24">
  <path id="Tracé_1" data-name="Tracé 1" d="M0,0H24V24H0Z" fill="none"/>
  <path id="Tracé_2" data-name="Tracé 2" d="M16.48,2.52A10.5,10.5,0,0,1,22.45,11h1.5A11.994,11.994,0,0,0,12,0l-.66.03,3.81,3.81Zm-6.25-.77a1.491,1.491,0,0,0-2.12,0L1.75,8.11a1.491,1.491,0,0,0,0,2.12L13.77,22.25a1.491,1.491,0,0,0,2.12,0l6.36-6.36a1.491,1.491,0,0,0,0-2.12Zm4.6,19.44L2.81,9.17,9.17,2.81,21.19,14.83Zm-7.31.29A10.487,10.487,0,0,1,1.55,13H.05A11.994,11.994,0,0,0,12,24l.66-.03L8.85,20.16,7.52,21.48Z" fill="#bac964"/>
</svg>
